<?xml version="1.0" encoding="utf-8"?>
<!-- Generator: Adobe Illustrator 25.2.0, SVG Export Plug-In . SVG Version: 6.00 Build 0)  -->
<svg version="1.1" id="Layer_1" xmlns="http://www.w3.org/2000/svg" xmlns:xlink="http://www.w3.org/1999/xlink" x="0px" y="0px"
	 viewBox="0 0 561 561" style="enable-background:new 0 0 561 561;" xml:space="preserve">
<style type="text/css">
	.st0{fill:none;stroke:#231F20;stroke-width:13.5147;stroke-miterlimit:10;}
	.st1{clip-path:url(#SVGID_2_);}
	.st2{fill:#231F20;}
	.st3{stroke:#000000;stroke-width:18.1974;stroke-miterlimit:10;}
	.st4{fill:none;stroke:#231F20;stroke-width:21;stroke-miterlimit:10;}
</style>
<path class="st0" d="M106.8,192.2h-53c-8.6,0-15.7-7.1-15.7-15.7V69.9c0-8.6,7.1-15.7,15.7-15.7h53c8.6,0,15.7,7.1,15.7,15.7v106.6
	C122.5,185.1,115.5,192.2,106.8,192.2z"/>
<g>
	<defs>
		<rect id="SVGID_1_" x="264.6" y="123.2" width="32.5" height="316"/>
	</defs>
	<use xlink:href="#SVGID_1_"  style="overflow:visible;fill:#231F20;"/>
	<clipPath id="SVGID_2_">
		<use xlink:href="#SVGID_1_"  style="overflow:visible;"/>
	</clipPath>
	<g class="st1">
		<path class="st2" d="M264.6,123.2h32.5v316h-32.5V123.2z"/>
	</g>
</g>
<path class="st3" d="M122,532.1H39.8c-8.6,0-15.7-7.1-15.7-15.7V362c0-8.6,7.1-15.7,15.7-15.7H122c8.6,0,15.7,7.1,15.7,15.7v154.4
	C137.7,525,130.7,532.1,122,532.1z"/>
<path class="st0" d="M507,192.2h-53c-8.6,0-15.7-7.1-15.7-15.7V69.9c0-8.6,7.1-15.7,15.7-15.7h53c8.6,0,15.7,7.1,15.7,15.7v106.6
	C522.7,185.1,515.6,192.2,507,192.2z"/>
<line class="st4" x1="162.6" y1="123.2" x2="399.2" y2="123.2"/>
<line class="st4" x1="162.6" y1="439.2" x2="399.2" y2="439.2"/>
<path class="st0" d="M507,508.2h-53c-8.6,0-15.7-7.1-15.7-15.7V385.9c0-8.6,7.1-15.7,15.7-15.7h53c8.6,0,15.7,7.1,15.7,15.7v106.6
	C522.7,501.1,515.6,508.2,507,508.2z"/>
</svg>
