<svg xmlns="http://www.w3.org/2000/svg" xmlns:xlink="http://www.w3.org/1999/xlink" width="561" zoomAndPan="magnify" viewBox="0 0 420.75 420.749983" height="561" preserveAspectRatio="xMidYMid meet" version="1.0"><defs><clipPath id="f84efff707"><path d="M 1.632812 38.796875 L 330.6875 38.796875 L 330.6875 367.851562 L 1.632812 367.851562 Z M 1.632812 38.796875 " clip-rule="nonzero"/></clipPath><clipPath id="566a6d9519"><path d="M 363.417969 68.121094 L 380.394531 68.121094 L 380.394531 237.078125 L 363.417969 237.078125 Z M 363.417969 68.121094 " clip-rule="nonzero"/></clipPath><clipPath id="6f4a9e8fb0"><path d="M 328.832031 42 L 416.703125 42 L 416.703125 81.753906 L 328.832031 81.753906 Z M 328.832031 42 " clip-rule="nonzero"/></clipPath><clipPath id="02d13f545f"><path d="M 372.765625 42 L 416.703125 81.753906 L 328.832031 81.753906 Z M 372.765625 42 " clip-rule="nonzero"/></clipPath><clipPath id="93ba128165"><path d="M 313 38 L 420.5 38 L 420.5 43 L 313 43 Z M 313 38 " clip-rule="nonzero"/></clipPath><clipPath id="daef8fe701"><path d="M 304.703125 19.796875 L 405 19.796875 L 405 188 L 304.703125 188 Z M 304.703125 19.796875 " clip-rule="nonzero"/></clipPath><clipPath id="4b51da53a3"><path d="M 304.703125 145 L 405 145 L 405 237.078125 L 304.703125 237.078125 Z M 304.703125 145 " clip-rule="nonzero"/></clipPath><clipPath id="18e3ced5f8"><path d="M 304.703125 19.796875 L 420.5 19.796875 L 420.5 237.078125 L 304.703125 237.078125 Z M 304.703125 19.796875 " clip-rule="nonzero"/></clipPath><clipPath id="e49b99381f"><path d="M 363.417969 170.816406 L 380.394531 170.816406 L 380.394531 332.140625 L 363.417969 332.140625 Z M 363.417969 170.816406 " clip-rule="nonzero"/></clipPath><clipPath id="00881db2a3"><path d="M 328.832031 319.757812 L 416.703125 319.757812 L 416.703125 359.515625 L 328.832031 359.515625 Z M 328.832031 319.757812 " clip-rule="nonzero"/></clipPath><clipPath id="c4aa562f1f"><path d="M 372.769531 359.515625 L 328.832031 319.8125 L 416.703125 319.8125 Z M 372.769531 359.515625 " clip-rule="nonzero"/></clipPath><clipPath id="e1f0e41f70"><path d="M 314 358 L 420.5 358 L 420.5 364 L 314 364 Z M 314 358 " clip-rule="nonzero"/></clipPath><clipPath id="684c567531"><path d="M 304.703125 170.816406 L 405 170.816406 L 405 255 L 304.703125 255 Z M 304.703125 170.816406 " clip-rule="nonzero"/></clipPath><clipPath id="0241dd934a"><path d="M 304.703125 212 L 405 212 L 405 379.941406 L 304.703125 379.941406 Z M 304.703125 212 " clip-rule="nonzero"/></clipPath><clipPath id="015df856d5"><path d="M 304.703125 170.816406 L 420.5 170.816406 L 420.5 379.941406 L 304.703125 379.941406 Z M 304.703125 170.816406 " clip-rule="nonzero"/></clipPath></defs><g clip-path="url(#f84efff707)"><path fill="#000000" d="M 166.160156 74.027344 C 237.460938 74.027344 295.46875 132.023438 295.46875 203.324219 C 295.46875 274.621094 237.460938 332.617188 166.160156 332.617188 C 94.847656 332.617188 36.878906 274.621094 36.878906 203.324219 C 36.878906 132.023438 94.847656 74.027344 166.160156 74.027344 M 166.160156 38.640625 C 75.207031 38.640625 1.480469 112.371094 1.480469 203.324219 C 1.480469 294.273438 75.207031 368.015625 166.160156 368.015625 C 257.113281 368.015625 330.855469 294.273438 330.855469 203.324219 C 330.855469 112.371094 257.113281 38.640625 166.160156 38.640625 Z M 166.160156 38.640625 " fill-opacity="1" fill-rule="nonzero"/></g><path fill="#000000" d="M 166.148438 112.574219 C 216.1875 112.574219 256.894531 153.28125 256.894531 203.324219 C 256.894531 253.363281 216.1875 294.070312 166.148438 294.070312 C 116.09375 294.070312 75.425781 253.363281 75.425781 203.324219 C 75.425781 153.28125 116.09375 112.574219 166.148438 112.574219 M 166.160156 88.769531 C 102.882812 88.769531 51.609375 140.058594 51.609375 203.324219 C 51.609375 266.589844 102.882812 317.875 166.160156 317.875 C 229.4375 317.875 280.710938 266.589844 280.710938 203.324219 C 280.710938 140.058594 229.4375 88.769531 166.160156 88.769531 Z M 166.160156 88.769531 " fill-opacity="1" fill-rule="nonzero"/><path fill="#000000" d="M 249.363281 238.59375 L 207.84375 211.175781 C 208.320312 208.617188 208.640625 206.007812 208.640625 203.324219 C 208.640625 200.636719 208.332031 198.027344 207.84375 195.46875 L 249.363281 168.050781 C 252.242188 166.097656 256.007812 160.1875 252.035156 153.320312 C 248.050781 146.417969 241.019531 146.664062 237.898438 148.21875 L 193.359375 170.984375 C 189.578125 167.796875 185.285156 165.25 180.554688 163.527344 L 177.984375 113.640625 C 177.753906 110.160156 174.464844 103.949219 166.480469 103.949219 C 158.5625 103.949219 155.3125 110.144531 155.054688 113.640625 L 152.085938 163.410156 C 147.058594 165.1875 142.535156 167.832031 138.578125 171.214844 L 93.972656 148.914062 C 90.835938 147.394531 83.820312 147.101562 79.859375 153.976562 C 75.863281 160.867188 79.605469 166.832031 82.507812 168.757812 L 124.371094 195.878906 C 123.960938 198.296875 123.628906 200.765625 123.628906 203.324219 C 123.628906 205.878906 123.949219 208.347656 124.386719 210.777344 L 82.519531 237.898438 C 79.617188 239.828125 75.875 245.792969 79.875 252.679688 C 83.832031 259.542969 90.851562 259.261719 93.988281 257.746094 L 138.589844 235.445312 C 142.546875 238.835938 147.074219 241.484375 152.097656 243.246094 L 155.066406 293.015625 C 155.324219 296.5 158.5625 302.707031 166.496094 302.707031 C 174.464844 302.707031 177.765625 296.511719 178 293.015625 L 180.570312 243.128906 C 185.300781 241.40625 189.59375 238.863281 193.371094 235.675781 L 237.910156 258.4375 C 241.019531 259.980469 248.0625 260.226562 252.046875 253.335938 C 255.996094 246.460938 252.230469 240.546875 249.363281 238.59375 Z M 166.132812 223.527344 C 154.964844 223.527344 145.929688 214.480469 145.929688 203.324219 C 145.929688 192.164062 154.964844 183.117188 166.132812 183.117188 C 177.277344 183.117188 186.328125 192.164062 186.328125 203.324219 C 186.328125 214.480469 177.277344 223.527344 166.132812 223.527344 Z M 166.132812 223.527344 " fill-opacity="1" fill-rule="nonzero"/><g clip-path="url(#566a6d9519)"><path fill="#000000" d="M 363.417969 265.070312 L 363.417969 68.121094 L 380.394531 68.121094 L 380.394531 265.070312 Z M 363.417969 265.070312 " fill-opacity="1" fill-rule="nonzero"/></g><g clip-path="url(#6f4a9e8fb0)"><g clip-path="url(#02d13f545f)"><path fill="#000000" d="M 328.832031 81.753906 L 328.832031 42 L 416.703125 42 L 416.703125 81.753906 Z M 328.832031 81.753906 " fill-opacity="1" fill-rule="nonzero"/></g></g><g clip-path="url(#93ba128165)"><path fill="#000000" d="M 313.523438 38.339844 L 326.0625 38.339844 L 326.0625 42.519531 L 313.523438 42.519531 M 330.242188 38.339844 L 342.78125 38.339844 L 342.78125 42.519531 L 330.242188 42.519531 M 346.960938 38.339844 L 359.5 38.339844 L 359.5 42.519531 L 346.960938 42.519531 M 363.625 38.339844 L 376.164062 38.339844 L 376.164062 42.519531 L 363.625 42.519531 M 380.34375 38.339844 L 392.878906 38.339844 L 392.878906 42.519531 L 380.34375 42.519531 M 397.058594 38.339844 L 409.597656 38.339844 L 409.597656 42.519531 L 397.058594 42.519531 M 413.777344 38.339844 L 426.316406 38.339844 L 426.316406 42.519531 L 413.777344 42.519531 " fill-opacity="1" fill-rule="nonzero"/></g><g clip-path="url(#daef8fe701)"><path stroke-linecap="butt" transform="matrix(0, -0.522417, 0.522417, 0, 148.284946, 312.871516)" fill="none" stroke-linejoin="miter" d="M 528.000532 261.502858 L 484.198702 261.502858 C 475.599846 261.502858 468.496442 254.399455 468.496442 245.800598 L 468.496442 107.201979 C 468.496442 98.603122 475.599846 91.499718 484.198702 91.499718 L 528.000532 91.499718 C 536.599389 91.499718 543.702792 98.603122 543.702792 107.201979 L 543.702792 245.800598 C 543.702792 254.399455 536.599389 261.502858 528.000532 261.502858 Z M 528.000532 261.502858 " stroke="#000000" stroke-width="16.134001" stroke-opacity="1" stroke-miterlimit="10"/></g><g clip-path="url(#4b51da53a3)"><path stroke-linecap="butt" transform="matrix(0, -0.522417, 0.522417, 0, 148.284946, 312.871516)" fill="none" stroke-linejoin="miter" d="M 76.799816 261.502858 L 32.997986 261.502858 C 24.399129 261.502858 17.303203 254.399455 17.303203 245.800598 L 17.303203 107.201979 C 17.303203 98.603122 24.399129 91.499718 32.997986 91.499718 L 76.799816 91.499718 C 85.398673 91.499718 92.502076 98.603122 92.502076 107.201979 L 92.502076 245.800598 C 92.502076 254.399455 85.398673 261.502858 76.799816 261.502858 Z M 76.799816 261.502858 " stroke="#000000" stroke-width="16.134001" stroke-opacity="1" stroke-miterlimit="10"/></g><g clip-path="url(#18e3ced5f8)"><path stroke-linecap="butt" transform="matrix(0, -0.522417, 0.522417, 0, 148.284946, 312.871516)" fill="none" stroke-linejoin="miter" d="M 376.600832 48.198866 L 184.397686 48.198866 C 158.69832 48.198866 137.597473 69.299713 137.597473 94.999079 L 137.597473 172.396269 C 137.597473 198.103112 158.69832 219.196482 184.397686 219.196482 L 376.600832 219.196482 C 402.300198 219.196482 423.401045 198.103112 423.401045 172.396269 L 423.401045 94.999079 C 423.401045 69.299713 402.300198 48.198866 376.600832 48.198866 Z M 215.996616 182.498056 C 184.599573 182.498056 159.199297 157.097781 159.199297 125.700737 C 159.199297 94.303693 184.599573 68.903418 215.996616 68.903418 C 247.401137 68.903418 272.801413 94.303693 272.801413 125.700737 C 272.801413 157.000576 247.401137 182.498056 215.996616 182.498056 Z M 346.602037 182.498056 C 315.197516 182.498056 289.797241 157.097781 289.797241 125.700737 C 289.797241 94.303693 315.197516 68.903418 346.602037 68.903418 C 377.999081 68.903418 403.399356 94.303693 403.399356 125.700737 C 403.399356 157.000576 377.999081 182.498056 346.602037 182.498056 Z M 346.602037 182.498056 " stroke="#000000" stroke-width="25.086" stroke-opacity="1" stroke-miterlimit="10"/></g><g clip-path="url(#e49b99381f)"><path fill="#000000" d="M 363.417969 332.140625 L 363.417969 135.191406 L 380.394531 135.191406 L 380.394531 332.140625 Z M 363.417969 332.140625 " fill-opacity="1" fill-rule="nonzero"/></g><g clip-path="url(#00881db2a3)"><g clip-path="url(#c4aa562f1f)"><path fill="#000000" d="M 328.832031 359.515625 L 328.832031 319.757812 L 416.703125 319.757812 L 416.703125 359.515625 Z M 328.832031 359.515625 " fill-opacity="1" fill-rule="nonzero"/></g></g><g clip-path="url(#e1f0e41f70)"><path fill="#000000" d="M 314.363281 358.992188 L 326.898438 358.992188 L 326.898438 363.171875 L 314.363281 363.171875 M 331.078125 358.992188 L 343.617188 358.992188 L 343.617188 363.171875 L 331.078125 363.171875 M 347.796875 358.992188 L 360.335938 358.992188 L 360.335938 363.171875 L 347.796875 363.171875 M 364.511719 358.992188 L 377.050781 358.992188 L 377.050781 363.171875 L 364.511719 363.171875 M 381.179688 358.992188 L 393.714844 358.992188 L 393.714844 363.171875 L 381.179688 363.171875 M 397.894531 358.992188 L 410.433594 358.992188 L 410.433594 363.171875 L 397.894531 363.171875 M 414.613281 358.992188 L 427.152344 358.992188 L 427.152344 363.171875 L 414.613281 363.171875 " fill-opacity="1" fill-rule="nonzero"/></g><g clip-path="url(#684c567531)"><path stroke-linecap="butt" transform="matrix(0, -0.522417, 0.522417, 0, 148.285149, 379.942038)" fill="none" stroke-linejoin="miter" d="M 528.000933 261.502468 L 484.199103 261.502468 C 475.600246 261.502468 468.496843 254.399064 468.496843 245.800208 L 468.496843 107.201588 C 468.496843 98.602731 475.600246 91.499328 484.199103 91.499328 L 528.000933 91.499328 C 536.59979 91.499328 543.703193 98.602731 543.703193 107.201588 L 543.703193 245.800208 C 543.703193 254.399064 536.59979 261.502468 528.000933 261.502468 Z M 528.000933 261.502468 " stroke="#000000" stroke-width="16.134001" stroke-opacity="1" stroke-miterlimit="10"/></g><g clip-path="url(#0241dd934a)"><path stroke-linecap="butt" transform="matrix(0, -0.522417, 0.522417, 0, 148.285149, 379.942038)" fill="none" stroke-linejoin="miter" d="M 76.800217 261.502468 L 32.998387 261.502468 C 24.39953 261.502468 17.303604 254.399064 17.303604 245.800208 L 17.303604 107.201588 C 17.303604 98.602731 24.39953 91.499328 32.998387 91.499328 L 76.800217 91.499328 C 85.399074 91.499328 92.502477 98.602731 92.502477 107.201588 L 92.502477 245.800208 C 92.502477 254.399064 85.399074 261.502468 76.800217 261.502468 Z M 76.800217 261.502468 " stroke="#000000" stroke-width="16.134001" stroke-opacity="1" stroke-miterlimit="10"/></g><g clip-path="url(#015df856d5)"><path stroke-linecap="butt" transform="matrix(0, -0.522417, 0.522417, 0, 148.285149, 379.942038)" fill="none" stroke-linejoin="miter" d="M 376.601233 48.198475 L 184.398087 48.198475 C 158.698721 48.198475 137.597874 69.299322 137.597874 94.998689 L 137.597874 172.403356 C 137.597874 198.102722 158.698721 219.203569 184.398087 219.203569 L 376.601233 219.203569 C 402.300599 219.203569 423.401446 198.102722 423.401446 172.403356 L 423.401446 94.998689 C 423.401446 69.299322 402.300599 48.198475 376.601233 48.198475 Z M 215.997017 182.497666 C 184.599973 182.497666 159.199698 157.09739 159.199698 125.700347 C 159.199698 94.303303 184.599973 68.903027 215.997017 68.903027 C 247.401538 68.903027 272.801814 94.303303 272.801814 125.700347 C 272.801814 157.000186 247.401538 182.497666 215.997017 182.497666 Z M 346.602438 182.497666 C 315.197917 182.497666 289.797641 157.09739 289.797641 125.700347 C 289.797641 94.303303 315.197917 68.903027 346.602438 68.903027 C 377.999482 68.903027 403.399757 94.303303 403.399757 125.700347 C 403.399757 157.000186 377.999482 182.497666 346.602438 182.497666 Z M 346.602438 182.497666 " stroke="#000000" stroke-width="25.086" stroke-opacity="1" stroke-miterlimit="10"/></g></svg>